<svg xmlns="http://www.w3.org/2000/svg" viewBox="0 0 263.71 357.07"><defs><style>.cls-1{fill:#ffe000;}</style></defs><title>Risorsa 2</title><g id="Livello_2" data-name="Livello 2"><g id="Livello_1-2" data-name="Livello 1"><path class="cls-1" d="M27.49,29.11c3.19.44,8.41-.72,8.41-4.93,0-3.62-2.76-5.07-5.8-5.8a.27.27,0,0,0,0-.43c-2.61-2.18-7.25-1.16-8.85,1.88C18.64,24.33,23.14,28.53,27.49,29.11ZM230.35,309c-.29,0-.43.14-.72.29a1,1,0,0,0-.58.29,4.23,4.23,0,0,0-1.89,5.07c.87,2.18,3.48,2.32,5.51,1.74s3.92-2.46,3.19-4.64C235.28,309.27,232.67,308.4,230.35,309Zm-47.41,22.47c-2.61.15-5.22,1.74-5.66,4.35a5,5,0,0,0,2.32,4.93,7.65,7.65,0,0,0,5.66.44c3.48-1,6.52-5.22,3.62-8.56A5.58,5.58,0,0,0,182.94,331.45Zm-57.43-17.54a27,27,0,0,0-1.16,3c-3,.58-3.77,4.79-4.35,7.25-1.16,5.66-.29,11.89-2.17,17.4-1.31,3.77-8.41,9-6,13.63.87,1.74,2.32,2,4.06,1.74,3.19-.58,3.34-2.75,3.77-5.36A21.8,21.8,0,0,1,123.48,341a16.6,16.6,0,0,0,2.76-6.81c.87-5.22-.29-10.44.43-15.66.15-.15.29-.29.29-.44a.91.91,0,0,0-.14-.58,14.24,14.24,0,0,1,1.45-4.2C128.27,313.18,125.8,313.33,125.51,313.91Zm-78.88-47A20.35,20.35,0,0,0,51,258.08c.29-1.31-2.47-1-2.76.14v.15A24.07,24.07,0,0,0,40,264.31c-1.45,1.6-3.19,4.93-.15,5.95C42.57,271.13,45,268.66,46.63,266.92Zm33.06,17a3.71,3.71,0,0,0-1.88,1.16c-.15.14-.15.14-.15.29A39.62,39.62,0,0,0,64.9,302.6c-.15.29.29.43.58.43,8.27,1.16,13-8.41,15.52-15.51a2.21,2.21,0,0,0,1.3-.73,2.7,2.7,0,0,0-.72-3.05C81.14,283.31,80.27,283.6,79.69,283.89Zm-68.3-37.41c-.43,0-.72-.15-1.16-.15h-.14c-1.74.15-3.63,1-4.06,2.76,0,.29.14.43.43.58a3.7,3.7,0,0,0,.29,3c.73.87,2.61.73,3.63.44a5.39,5.39,0,0,0,3.19-2C14.87,249.09,13.71,246.91,11.39,246.48Zm-2-38a3.87,3.87,0,0,0-1.74-.44c-.14-.29-.72-.14-1-.14-.58.14-1,.29-1.45.43a4.89,4.89,0,0,0-2.61,1.89c-.15.14,0,.29.29.29A3.5,3.5,0,0,0,2.55,213c.72,3.05,4.64,2.47,6.67,1.16S12.12,209.65,9.36,208.49ZM263.13,273.3c-1.6-2.61-5.22-1.59-7.54-.58a4.38,4.38,0,0,0-4.5,2.61c-1.16,3.92,3.63,5.37,6.53,4.79S265.16,276.64,263.13,273.3ZM141.61,71.74c10-2.46,22.33-3.77,37.12-3.91h3.48c3.48,0,7.54,0,10.15.14a155.86,155.86,0,0,1,30.45,3.77c10.59,2.61,19,6.38,25.09,11a36.16,36.16,0,0,1,12.47,17,66.35,66.35,0,0,1,3.34,22v12.47a23.1,23.1,0,0,1-21.32,23.06c-9.57.43-16.82,1.88-22.62-3.63a26.87,26.87,0,0,1-2-2.17c-.58-.87-1.31-1.74-1.89-2.76-4.35-7-11-11.16-19.43-10.44-11.45,1-23,1.74-33.93,4.79-17.69,4.93-21.9,13.34-19,31.32,1,6.52,4.06,11.74,10.44,13.34q17.63,4.56,35.68,7.39c10.15,1.45,18.56-1.45,24.94-8.84,1.3-1.6,2.46-3.34,3.62-5.08,4.06-6.81,10.15-6.09,18.42-5.8a6.83,6.83,0,0,1,1.74.15l5.07.58a24.79,24.79,0,0,1,7.69,2.32h0a23.17,23.17,0,0,1,12.18,15.95,25.05,25.05,0,0,1,.44,4.64v12.62c0,8.12-.87,15.51-3.34,22a35.47,35.47,0,0,1-12.47,17c-6.09,4.64-14.36,8.27-25.09,11q-3.92.87-8.26,1.74a15.92,15.92,0,0,1,1.74,5.22c.87,7.83,1,13.63,5.8,20.45,2.61,3.77,5.51,7.1,3.48,11.74-.15.59-1.31.88-1.89.88-12,.28-17.11-11.9-22.47-20.74a98.05,98.05,0,0,0-6.53-10.59c-1.88-2.32-4.06-3.48-6.38-4.93h-5.94c-4.64,0-9-.14-13.05-.29a10.17,10.17,0,0,1-1.74,4.06c-1.74,2.18-3.92,3.05-6.53,3.63-3.62.87-8.56,1-10.73,4.64-1.16,2,.14,5.22-.29,7.54a5.92,5.92,0,0,1-4.21,4.93c-7.54,2.32-10-5.8-12.18-11.75l-3.48,18.27c-.14.87-2.46,1.6-2.75.58a61.7,61.7,0,0,1-2.32-19.28c.29-3.34.72-6.67,1.3-10,.73-4.2.44-6.67-2.32-10-.72-.87-1.74-2.76-2.61-4.06l-2.17-1.31h0l-7.83-2.17-2.76,1.59a27.51,27.51,0,0,0-4.35,3.77,57.5,57.5,0,0,0-11,15.81c-.29.72-2.9,1.3-2.61.14L92.89,261c-6.67,3.48-10.3,10.44-14.21,16.67A90.39,90.39,0,0,1,66.5,293.31C61,298.82,51.41,304,44.16,298.39c-9.28-7.4-.87-19.72,5.8-25.09,12.33-10,25.09-19,36.69-29.72.15-1.16-1.16-1.89-4.06-1.89-.43.15-.58.87-1,1.16-1.31.87-2,1.89-3.63,2.32-1.88.44-3.91-.29-4.35-2.32-.58-2.46,1.45-4.35,3.34-5.36,3-1.6,6.09-2.47,6.67-6.38.14-1.31.29-3.05-.58-4.06-1.45-2-3.92-1.45-6.24-.87-1.16.29-1.74-.58-1.45-1.31-6.23,1-12.33,2-18,5.8-4.93,3.34-8.85,7.54-15.08,6.24-.15,0-.58-.15-.44-.44a12.27,12.27,0,0,1,7.25-7,22.22,22.22,0,0,1,4.06-1.3c4.06-1.31,6.09,0,3.92-4.93-2.76-5.95-4.5-3.2-10.15,1.16-2.76,2.17-6.09,4.49-9.14.72-4.64-5.95,4.35-13.78,8.85-16.24a34.68,34.68,0,0,1,9.42-3.48,23,23,0,0,0,8.12-2.9c4.36-2.47,6.24-5.37.73-7-8.7-2.61-16.39,3.62-23.64,7.68-2.17,1.16-4.49,2.61-7,2.61-3.62,0-8.84-3.19-6.38-7.25a6.23,6.23,0,0,1,3.77-2.46c4.5-1.31,8.85,0,13.63-1.74,3.19-1.31,6-2.9,9.43-3.48,4.2-.58,8.41.72,12.62.29,3.19-.29,5.65-1.31,4.35-4.79a9.51,9.51,0,0,0-2.47-3.33,35.14,35.14,0,0,0-5.8-4.64c-4.79-3.19-9.28-2.18-14.36-3.63S40.68,169.62,35,168.9c-2.47-.29-4.79-.44-7.11-.87-3.19,0-6.38,0-9.57-.29C13.42,167.45,8.06,167,4,164c-6.53-4.64-4.64-12.76,2.61-15.23,3.91-1.3,7.83-.58,11.45.73,7.54,2.61,14.5,5.65,22.48,6.81a92.89,92.89,0,0,0,10.87,1c2.18.14,7,1.16,10.15,1a2.38,2.38,0,0,1,1-.58,8.32,8.32,0,0,0,1.89-1l2.17-4.21v-1l-1.16-.73c-1-1.16-4.06-2.32-5.51-3.19L59,147h-.72a16.62,16.62,0,0,1-5.95-1.16c-3.19-1.45-4.93-3.62-4.49-7,.14-.72.87-1,1.45-1.16a51.54,51.54,0,0,1,12.47-.29c1.74.15,8.85,2.61,10.88,1.45a2.33,2.33,0,0,0-.44-1.3c0-1.45-1.45-3.05-1.88-4.35a17.43,17.43,0,0,1-.73-2.91c-5.22-5.8-13.92-12.18-16-13.63-8-5.65-29.58-13.34-28.86-26.1.15-3.33,3.34-5.65,6.53-5.94,4.35-.58,7.83,2.17,11,4.64,8,6.23,15.66,12.76,23.49,19.14,5.8,4.78,15.66,15.95,23.78,15.8,21-.43,6-37.12,1.45-47C84.48,62.9,75.92,44.48,70.41,33.6c-3.33-6.67-12-22.62-6.09-29.43C68.09-.18,77.52-.91,81.43,1c2.18,1,4.79,4.93,5.8,8,1,2.76,1.45,9,1.31,11.89a26.43,26.43,0,0,0,0,4.79c.72,4.64,13.34,33.64,18.7,42.92,1.31,2.32,7.4,12,9.43,14.36C122.47,78,130.88,74.35,141.61,71.74Z"/></g></g></svg>