<svg xmlns="http://www.w3.org/2000/svg" viewBox="0 0 256 256"><defs><style>.cls-1{fill:none;}.cls-2{fill:#ffe000;}</style></defs><title>Risorsa 1</title><g id="Livello_2" data-name="Livello 2"><g id="Livello_1-2" data-name="Livello 1"><rect class="cls-1" width="256" height="256"/><path class="cls-2" d="M183.1,137c-10.8-.5-14-2.8-20.1,5.8a22.34,22.34,0,0,0-2,3,23,23,0,0,1-21.6,11.1c-11.4-1.1-23.2-1.8-34.2-5.1-14.1-4.1-17.8-10.4-18.4-22.7h0v-2h0c.6-12.3,4.3-18.7,18.4-22.8,11-3.2,22.7-4,34.1-5.1,8.4-.8,17,2.5,21.4,10a20.41,20.41,0,0,0,1.8,2.9c6.1,8.6,11.6,7.2,22.4,6.7l3.6-.2c13.9-1,22-12.6,22-26.6l-.2-9.3a67.41,67.41,0,0,0-3.8-22.3,38,38,0,0,0-12.9-17.2c-6.1-4.8-14.6-8.6-25.3-11.2a210.86,210.86,0,0,0-81.5,0C76,34.7,67.6,38.5,61.5,43.2A37.49,37.49,0,0,0,49.1,60.4a64.89,64.89,0,0,0-3.3,22.3v91.1a64.89,64.89,0,0,0,3.3,22.3,36.43,36.43,0,0,0,12.6,17.1c6.1,4.7,14.5,8.4,25.3,11.1a210.86,210.86,0,0,0,81.5,0q16-4.05,25.2-11.1a37.93,37.93,0,0,0,13-17.1,63,63,0,0,0,3.8-22.3V163.4c.2-15.9-9.4-25.2-24.3-26.1Z"/></g></g></svg>